RedHatDisplay-Light.ufo
<glyph name="ampersand" format="2">
  <advance width="639"/>
  <unicode hex="0026"/>
  <outline>
    <contour>
      <point x="251" y="-11" type="curve" smooth="yes"/>
      <point x="341" y="-11"/>
      <point x="421" y="27"/>
      <point x="480" y="99" type="curve"/>
      <point x="523" y="61"/>
      <point x="568" y="24"/>
      <point x="612" y="-9" type="curve"/>
      <point x="640" y="24" type="line"/>
      <point x="595" y="58"/>
      <point x="550" y="96"/>
      <point x="506" y="134" type="curve"/>
      <point x="545" y="194"/>
      <point x="576" y="268"/>
      <point x="592" y="359" type="curve"/>
      <point x="546" y="367" type="line"/>
      <point x="534" y="290"/>
      <point x="508" y="220"/>
      <point x="473" y="164" type="curve"/>
      <point x="396" y="234"/>
      <point x="316" y="314"/>
      <point x="257" y="381" type="curve"/>
      <point x="306" y="410" type="line" smooth="yes"/>
      <point x="386" y="456"/>
      <point x="424" y="506"/>
      <point x="424" y="575" type="curve" smooth="yes"/>
      <point x="424" y="652"/>
      <point x="370" y="711"/>
      <point x="281" y="711" type="curve" smooth="yes"/>
      <point x="188" y="711"/>
      <point x="124" y="639"/>
      <point x="124" y="551" type="curve" smooth="yes"/>
      <point x="124" y="497"/>
      <point x="142" y="453"/>
      <point x="189" y="392" type="curve"/>
      <point x="66" y="327"/>
      <point x="26" y="269"/>
      <point x="26" y="187" type="curve" smooth="yes"/>
      <point x="26" y="69"/>
      <point x="113" y="-11"/>
    </contour>
    <contour>
      <point x="230" y="411" type="line"/>
      <point x="186" y="464"/>
      <point x="169" y="503"/>
      <point x="169" y="552" type="curve" smooth="yes"/>
      <point x="169" y="619"/>
      <point x="214" y="669"/>
      <point x="279" y="669" type="curve" smooth="yes"/>
      <point x="337" y="669"/>
      <point x="379" y="626"/>
      <point x="379" y="574" type="curve" smooth="yes"/>
      <point x="379" y="526"/>
      <point x="354" y="483"/>
      <point x="294" y="448" type="curve" smooth="yes"/>
    </contour>
    <contour>
      <point x="251" y="31" type="curve" smooth="yes"/>
      <point x="145" y="31"/>
      <point x="72" y="92"/>
      <point x="72" y="186" type="curve" smooth="yes"/>
      <point x="72" y="250"/>
      <point x="96" y="297"/>
      <point x="217" y="359" type="curve"/>
      <point x="272" y="296"/>
      <point x="356" y="211"/>
      <point x="447" y="128" type="curve"/>
      <point x="399" y="66"/>
      <point x="329" y="31"/>
    </contour>
  </outline>
</glyph>
<glyph name="hyphen" format="2">
  <advance width="442"/>
  <unicode hex="002D"/>
  <outline>
    <contour>
      <point x="53" y="258" type="line"/>
      <point x="389" y="258" type="line"/>
      <point x="389" y="302" type="line"/>
      <point x="53" y="302" type="line"/>
    </contour>
  </outline>
</glyph>
<glyph name="period" format="2">
  <advance width="250"/>
  <unicode hex="002E"/>
  <outline>
    <contour>
      <point x="125" y="-5" type="curve" smooth="yes"/>
      <point x="146" y="-5"/>
      <point x="163" y="12"/>
      <point x="163" y="33" type="curve" smooth="yes"/>
      <point x="163" y="54"/>
      <point x="146" y="71"/>
      <point x="125" y="71" type="curve" smooth="yes"/>
      <point x="104" y="71"/>
      <point x="87" y="54"/>
      <point x="87" y="33" type="curve" smooth="yes"/>
      <point x="87" y="12"/>
      <point x="104" y="-5"/>
    </contour>
  </outline>
</glyph>
<glyph name="A" format="2">
  <advance width="655"/>
  <unicode hex="0041"/>
  <anchor x="328" y="700" name="top"/>
  <anchor x="648" y="0" name="bottom"/>
  <outline>
    <contour>
      <point x="8" y="0" type="line"/>
      <point x="56" y="0" type="line"/>
      <point x="154" y="237" type="line"/>
      <point x="501" y="237" type="line"/>
      <point x="598" y="0" type="line"/>
      <point x="648" y="0" type="line"/>
      <point x="357" y="700" type="line"/>
      <point x="300" y="700" type="line"/>
    </contour>
    <contour>
      <point x="171" y="278" type="line"/>
      <point x="328" y="657" type="line"/>
      <point x="484" y="278" type="line"/>
    </contour>
  </outline>
</glyph>
<glyph name="B" format="2">
  <advance width="641"/>
  <unicode hex="0042"/>
  <guideline x="404" y="192" angle="0.0" identifier="qGGesCPrTG"/>
  <outline>
    <contour>
      <point x="83" y="0" type="line"/>
      <point x="357" y="0" type="line" smooth="yes"/>
      <point x="504" y="0"/>
      <point x="591" y="79"/>
      <point x="591" y="193" type="curve" smooth="yes"/>
      <point x="591" y="283"/>
      <point x="534" y="346"/>
      <point x="436" y="367" type="curve"/>
      <point x="515" y="390"/>
      <point x="560" y="448"/>
      <point x="560" y="526" type="curve" smooth="yes"/>
      <point x="560" y="631"/>
      <point x="482" y="700"/>
      <point x="346" y="700" type="curve" smooth="yes"/>
      <point x="83" y="700" type="line"/>
    </contour>
    <contour>
      <point x="129" y="387" type="line"/>
      <point x="129" y="657" type="line"/>
      <point x="345" y="657" type="line" smooth="yes"/>
      <point x="450" y="657"/>
      <point x="515" y="602"/>
      <point x="515" y="522" type="curve" smooth="yes"/>
      <point x="515" y="442"/>
      <point x="450" y="387"/>
      <point x="345" y="387" type="curve" smooth="yes"/>
    </contour>
    <contour>
      <point x="129" y="43" type="line"/>
      <point x="129" y="344" type="line"/>
      <point x="353" y="344" type="line" smooth="yes"/>
      <point x="470" y="344"/>
      <point x="544" y="283"/>
      <point x="544" y="194" type="curve" smooth="yes"/>
      <point x="544" y="105"/>
      <point x="470" y="43"/>
      <point x="353" y="43" type="curve" smooth="yes"/>
    </contour>
  </outline>
</glyph>
<glyph name="H" format="2">
  <advance width="704"/>
  <unicode hex="0048"/>
  <anchor x="352" y="700" name="top"/>
  <outline>
    <contour>
      <point x="83" y="0" type="line"/>
      <point x="129" y="0" type="line"/>
      <point x="129" y="331" type="line"/>
      <point x="575" y="331" type="line"/>
      <point x="575" y="0" type="line"/>
      <point x="621" y="0" type="line"/>
      <point x="621" y="700" type="line"/>
      <point x="575" y="700" type="line"/>
      <point x="575" y="374" type="line"/>
      <point x="129" y="374" type="line"/>
      <point x="129" y="700" type="line"/>
      <point x="83" y="700" type="line"/>
    </contour>
  </outline>
</glyph>
<glyph name="O" format="2">
  <advance width="808"/>
  <unicode hex="004F"/>
  <guideline x="408" y="392" angle="90.0" identifier="4uZcFqHUz6"/>
  <anchor x="404" y="700" name="top"/>
  <outline>
    <contour>
      <point x="404" y="-11" type="curve" smooth="yes"/>
      <point x="602" y="-11"/>
      <point x="760" y="148"/>
      <point x="760" y="350" type="curve" smooth="yes"/>
      <point x="760" y="552"/>
      <point x="602" y="711"/>
      <point x="404" y="711" type="curve" smooth="yes"/>
      <point x="206" y="711"/>
      <point x="48" y="552"/>
      <point x="48" y="350" type="curve" smooth="yes"/>
      <point x="48" y="148"/>
      <point x="206" y="-11"/>
    </contour>
    <contour>
      <point x="404" y="32" type="curve" smooth="yes"/>
      <point x="230" y="32"/>
      <point x="95" y="171"/>
      <point x="95" y="350" type="curve" smooth="yes"/>
      <point x="95" y="529"/>
      <point x="230" y="668"/>
      <point x="404" y="668" type="curve" smooth="yes"/>
      <point x="578" y="668"/>
      <point x="713" y="529"/>
      <point x="713" y="350" type="curve" smooth="yes"/>
      <point x="713" y="171"/>
      <point x="578" y="32"/>
    </contour>
  </outline>
</glyph>
<glyph name="X" format="2">
  <advance width="610"/>
  <unicode hex="0058"/>
  <outline>
    <contour>
      <point x="6" y="0" type="line"/>
      <point x="61" y="0" type="line"/>
      <point x="305" y="328" type="line"/>
      <point x="547" y="0" type="line"/>
      <point x="604" y="0" type="line"/>
      <point x="333" y="365" type="line"/>
      <point x="584" y="700" type="line"/>
      <point x="529" y="700" type="line"/>
      <point x="306" y="400" type="line"/>
      <point x="83" y="700" type="line"/>
      <point x="26" y="700" type="line"/>
      <point x="278" y="363" type="line"/>
    </contour>
  </outline>
</glyph>
<glyph name="grave" format="2">
  <advance width="600"/>
  <unicode hex="0060"/>
  <outline>
    <contour>
      <point x="281" y="596" type="line"/>
      <point x="325" y="596" type="line"/>
      <point x="231" y="706" type="line"/>
      <point x="163" y="706" type="line"/>
    </contour>
  </outline>
</glyph>
<glyph name="g" format="2">
  <advance width="571"/>
  <unicode hex="0067"/>
  <note>
Version created Sun Jan 13 16:53:00 2019
</note>
  <anchor x="283" y="492" name="top"/>
  <outline>
    <contour>
      <point x="305" y="-214" type="curve" smooth="yes"/>
      <point x="431" y="-214"/>
      <point x="503" y="-148"/>
      <point x="503" y="-23" type="curve" smooth="yes"/>
      <point x="503" y="492" type="line"/>
      <point x="459" y="492" type="line"/>
      <point x="459" y="434" type="line"/>
      <point x="413" y="475"/>
      <point x="353" y="502"/>
      <point x="290" y="502" type="curve" smooth="yes"/>
      <point x="153" y="502"/>
      <point x="45" y="389"/>
      <point x="45" y="246" type="curve" smooth="yes"/>
      <point x="45" y="102"/>
      <point x="153" y="-11"/>
      <point x="290" y="-10" type="curve" smooth="yes"/>
      <point x="356" y="-10"/>
      <point x="415" y="14"/>
      <point x="459" y="59" type="curve"/>
      <point x="459" y="-25" type="line" smooth="yes"/>
      <point x="459" y="-122"/>
      <point x="404" y="-172"/>
      <point x="302" y="-172" type="curve" smooth="yes"/>
      <point x="249" y="-172"/>
      <point x="203" y="-158"/>
      <point x="145" y="-125" type="curve"/>
      <point x="120" y="-161" type="line"/>
      <point x="173" y="-194"/>
      <point x="240" y="-214"/>
    </contour>
    <contour>
      <point x="290" y="32" type="curve" smooth="yes"/>
      <point x="178" y="32"/>
      <point x="90" y="126"/>
      <point x="90" y="246" type="curve" smooth="yes"/>
      <point x="90" y="366"/>
      <point x="178" y="460"/>
      <point x="290" y="460" type="curve" smooth="yes"/>
      <point x="361" y="460"/>
      <point x="424" y="425"/>
      <point x="459" y="378" type="curve"/>
      <point x="459" y="114" type="line"/>
      <point x="426" y="65"/>
      <point x="363" y="32"/>
    </contour>
  </outline>
</glyph>
<glyph name="i" format="2">
  <advance width="180"/>
  <unicode hex="0069"/>
  <anchor x="90" y="492" name="top"/>
  <anchor x="112" y="0" name="bottom"/>
  <outline>
    <contour>
      <point x="68" y="0" type="line"/>
      <point x="112" y="0" type="line"/>
      <point x="112" y="492" type="line"/>
      <point x="68" y="492" type="line"/>
    </contour>
    <contour>
      <point x="90" y="603" type="curve" smooth="yes"/>
      <point x="112" y="603"/>
      <point x="128" y="620"/>
      <point x="128" y="641" type="curve" smooth="yes"/>
      <point x="128" y="662"/>
      <point x="112" y="679"/>
      <point x="90" y="679" type="curve" smooth="yes"/>
      <point x="68" y="679"/>
      <point x="52" y="662"/>
      <point x="52" y="641" type="curve" smooth="yes"/>
      <point x="52" y="620"/>
      <point x="68" y="603"/>
    </contour>
  </outline>
</glyph>
<glyph name="v" format="2">
  <advance width="483"/>
  <unicode hex="0076"/>
  <outline>
    <contour>
      <point x="222" y="0" type="line"/>
      <point x="262" y="0" type="line"/>
      <point x="476" y="492" type="line"/>
      <point x="430" y="492" type="line"/>
      <point x="243" y="56" type="line"/>
      <point x="55" y="492" type="line"/>
      <point x="7" y="492" type="line"/>
    </contour>
  </outline>
</glyph>
<glyph name="w" format="2">
  <advance width="671"/>
  <unicode hex="0077"/>
  <guideline x="337" y="492" angle="0.0" color="0.999,0.001,0.001,0.999" identifier="F7Zx6Ukp1N"/>
  <anchor x="337" y="492" name="top"/>
  <outline>
    <contour>
      <point x="166" y="0" type="line"/>
      <point x="210" y="0" type="line"/>
      <point x="336" y="431" type="line"/>
      <point x="461" y="0" type="line"/>
      <point x="505" y="0" type="line"/>
      <point x="655" y="492" type="line"/>
      <point x="611" y="492" type="line"/>
      <point x="483" y="65" type="line"/>
      <point x="359" y="492" type="line"/>
      <point x="315" y="492" type="line"/>
      <point x="190" y="66" type="line"/>
      <point x="62" y="492" type="line"/>
      <point x="16" y="492" type="line"/>
    </contour>
  </outline>
</glyph>
<glyph name="x" format="2">
  <advance width="460"/>
  <unicode hex="0078"/>
  <outline>
    <contour>
      <point x="8" y="0" type="line"/>
      <point x="62" y="0" type="line"/>
      <point x="229" y="221" type="line"/>
      <point x="396" y="0" type="line"/>
      <point x="452" y="0" type="line"/>
      <point x="256" y="256" type="line"/>
      <point x="438" y="492" type="line"/>
      <point x="384" y="492" type="line"/>
      <point x="230" y="289" type="line"/>
      <point x="75" y="492" type="line"/>
      <point x="19" y="492" type="line"/>
      <point x="202" y="254" type="line"/>
    </contour>
  </outline>
</glyph>
<glyph name="bar" format="2">
  <advance width="251"/>
  <unicode hex="007C"/>
  <outline>
    <contour>
      <point x="104" y="-204" type="line"/>
      <point x="146" y="-204" type="line"/>
      <point x="146" y="700" type="line"/>
      <point x="104" y="700" type="line"/>
    </contour>
  </outline>
</glyph>
<glyph name="sterling" format="2">
  <advance width="600"/>
  <unicode hex="00A3"/>
  <outline>
    <contour>
      <point x="433" y="-25" type="curve" smooth="yes"/>
      <point x="500" y="-25"/>
      <point x="552" y="5"/>
      <point x="588" y="67" type="curve"/>
      <point x="553" y="89" type="line"/>
      <point x="527" y="42"/>
      <point x="489" y="18"/>
      <point x="435" y="18" type="curve" smooth="yes"/>
      <point x="418" y="18"/>
      <point x="399" y="20"/>
      <point x="379" y="25" type="curve" smooth="yes"/>
      <point x="195" y="67" type="line"/>
      <point x="215" y="85"/>
      <point x="226" y="115"/>
      <point x="226" y="152" type="curve" smooth="yes"/>
      <point x="226" y="164"/>
      <point x="225" y="175"/>
      <point x="202" y="314" type="curve"/>
      <point x="403" y="314" type="line"/>
      <point x="403" y="355" type="line"/>
      <point x="195" y="355" type="line"/>
      <point x="178" y="456"/>
      <point x="176" y="477"/>
      <point x="176" y="497" type="curve" smooth="yes"/>
      <point x="176" y="602"/>
      <point x="228" y="669"/>
      <point x="324" y="669" type="curve" smooth="yes"/>
      <point x="407" y="669"/>
      <point x="467" y="618"/>
      <point x="484" y="527" type="curve"/>
      <point x="526" y="539" type="line"/>
      <point x="503" y="649"/>
      <point x="432" y="711"/>
      <point x="324" y="711" type="curve" smooth="yes"/>
      <point x="200" y="711"/>
      <point x="132" y="632"/>
      <point x="132" y="498" type="curve" smooth="yes"/>
      <point x="132" y="473"/>
      <point x="134" y="446"/>
      <point x="150" y="355" type="curve"/>
      <point x="53" y="355" type="line"/>
      <point x="53" y="314" type="line"/>
      <point x="157" y="314" type="line"/>
      <point x="182" y="168"/>
      <point x="183" y="158"/>
      <point x="183" y="148" type="curve" smooth="yes"/>
      <point x="183" y="113"/>
      <point x="170" y="87"/>
      <point x="148" y="74" type="curve"/>
      <point x="92" y="76"/>
      <point x="48" y="55"/>
      <point x="15" y="-3" type="curve"/>
      <point x="46" y="-25" type="line"/>
      <point x="67" y="17"/>
      <point x="95" y="32"/>
      <point x="134" y="32" type="curve" smooth="yes"/>
      <point x="151" y="32"/>
      <point x="170" y="29"/>
      <point x="191" y="24" type="curve" smooth="yes"/>
      <point x="369" y="-17" type="line" smooth="yes"/>
      <point x="392" y="-22"/>
      <point x="413" y="-25"/>
    </contour>
  </outline>
</glyph>
<glyph name="yen" format="2">
  <advance width="643"/>
  <unicode hex="00A5"/>
  <outline>
    <contour>
      <point x="298" y="0" type="line"/>
      <point x="344" y="0" type="line"/>
      <point x="344" y="142" type="line"/>
      <point x="536" y="142" type="line"/>
      <point x="536" y="183" type="line"/>
      <point x="344" y="183" type="line"/>
      <point x="344" y="269" type="line"/>
      <point x="536" y="269" type="line"/>
      <point x="536" y="310" type="line"/>
      <point x="357" y="310" type="line"/>
      <point x="619" y="700" type="line"/>
      <point x="566" y="700" type="line"/>
      <point x="322" y="334" type="line"/>
      <point x="79" y="700" type="line"/>
      <point x="24" y="700" type="line"/>
      <point x="286" y="310" type="line"/>
      <point x="106" y="310" type="line"/>
      <point x="106" y="269" type="line"/>
      <point x="298" y="269" type="line"/>
      <point x="298" y="183" type="line"/>
      <point x="106" y="183" type="line"/>
      <point x="106" y="142" type="line"/>
      <point x="298" y="142" type="line"/>
    </contour>
  </outline>
</glyph>
<glyph name="section" format="2">
  <advance width="560"/>
  <unicode hex="00A7"/>
  <outline>
    <contour>
      <point x="281" y="-49" type="curve" smooth="yes"/>
      <point x="378" y="-49"/>
      <point x="442" y="2"/>
      <point x="442" y="80" type="curve" smooth="yes"/>
      <point x="442" y="126"/>
      <point x="422" y="162"/>
      <point x="383" y="188" type="curve"/>
      <point x="450" y="206"/>
      <point x="492" y="251"/>
      <point x="492" y="312" type="curve" smooth="yes"/>
      <point x="492" y="381"/>
      <point x="452" y="423"/>
      <point x="359" y="454" type="curve" smooth="yes"/>
      <point x="247" y="490" type="line" smooth="yes"/>
      <point x="189" y="509"/>
      <point x="162" y="538"/>
      <point x="162" y="582" type="curve" smooth="yes"/>
      <point x="162" y="635"/>
      <point x="206" y="669"/>
      <point x="279" y="669" type="curve" smooth="yes"/>
      <point x="322" y="669"/>
      <point x="375" y="654"/>
      <point x="428" y="626" type="curve"/>
      <point x="448" y="666" type="line"/>
      <point x="390" y="696"/>
      <point x="329" y="711"/>
      <point x="279" y="711" type="curve" smooth="yes"/>
      <point x="182" y="711"/>
      <point x="118" y="660"/>
      <point x="118" y="582" type="curve" smooth="yes"/>
      <point x="118" y="536"/>
      <point x="138" y="500"/>
      <point x="177" y="474" type="curve"/>
      <point x="110" y="456"/>
      <point x="68" y="411"/>
      <point x="68" y="350" type="curve" smooth="yes"/>
      <point x="68" y="281"/>
      <point x="108" y="239"/>
      <point x="201" y="208" type="curve" smooth="yes"/>
      <point x="313" y="172" type="line" smooth="yes"/>
      <point x="371" y="153"/>
      <point x="398" y="124"/>
      <point x="398" y="80" type="curve" smooth="yes"/>
      <point x="398" y="27"/>
      <point x="354" y="-7"/>
      <point x="281" y="-7" type="curve" smooth="yes"/>
      <point x="238" y="-7"/>
      <point x="185" y="8"/>
      <point x="132" y="36" type="curve"/>
      <point x="112" y="-4" type="line"/>
      <point x="170" y="-34"/>
      <point x="231" y="-49"/>
    </contour>
    <contour>
      <point x="336" y="211" type="curve"/>
      <point x="333" y="212"/>
      <point x="330" y="213"/>
      <point x="327" y="214" type="curve" smooth="yes"/>
      <point x="215" y="250" type="line" smooth="yes"/>
      <point x="139" y="275"/>
      <point x="112" y="302"/>
      <point x="112" y="350" type="curve" smooth="yes"/>
      <point x="112" y="407"/>
      <point x="154" y="445"/>
      <point x="224" y="451" type="curve"/>
      <point x="227" y="450"/>
      <point x="230" y="449"/>
      <point x="233" y="448" type="curve" smooth="yes"/>
      <point x="345" y="412" type="line" smooth="yes"/>
      <point x="421" y="387"/>
      <point x="448" y="360"/>
      <point x="448" y="312" type="curve" smooth="yes"/>
      <point x="448" y="255"/>
      <point x="406" y="217"/>
    </contour>
  </outline>
</glyph>
<glyph name="macron" format="2">
  <advance width="600"/>
  <unicode hex="00AF"/>
  <anchor x="300" y="492" name="_top"/>
  <outline>
    <contour>
      <point x="167" y="620" type="line"/>
      <point x="434" y="620" type="line"/>
      <point x="434" y="657" type="line"/>
      <point x="167" y="657" type="line"/>
    </contour>
  </outline>
</glyph>
<glyph name="plusminus" format="2">
  <advance width="600"/>
  <unicode hex="00B1"/>
  <outline>
    <contour>
      <point x="111" y="-1" type="line"/>
      <point x="488" y="-1" type="line"/>
      <point x="488" y="40" type="line"/>
      <point x="111" y="40" type="line"/>
    </contour>
    <contour>
      <point x="279" y="162" type="line"/>
      <point x="320" y="162" type="line"/>
      <point x="320" y="348" type="line"/>
      <point x="488" y="348" type="line"/>
      <point x="488" y="388" type="line"/>
      <point x="320" y="388" type="line"/>
      <point x="320" y="571" type="line"/>
      <point x="279" y="571" type="line"/>
      <point x="279" y="388" type="line"/>
      <point x="111" y="388" type="line"/>
      <point x="111" y="348" type="line"/>
      <point x="279" y="348" type="line"/>
    </contour>
  </outline>
</glyph>
<glyph name="acute" format="2">
  <advance width="600"/>
  <unicode hex="00B4"/>
  <outline>
    <contour>
      <point x="272" y="596" type="line"/>
      <point x="316" y="596" type="line"/>
      <point x="435" y="706" type="line"/>
      <point x="368" y="706" type="line"/>
    </contour>
  </outline>
</glyph>
<glyph name="AE" format="2">
  <advance width="939"/>
  <unicode hex="00C6"/>
  <outline>
    <contour>
      <point x="8" y="0" type="line"/>
      <point x="56" y="0" type="line"/>
      <point x="154" y="237" type="line"/>
      <point x="501" y="237" type="line"/>
      <point x="598" y="0" type="line"/>
      <point x="908" y="0" type="line"/>
      <point x="908" y="43" type="line"/>
      <point x="630" y="43" type="line"/>
      <point x="510" y="332" type="line"/>
      <point x="762" y="332" type="line"/>
      <point x="762" y="375" type="line"/>
      <point x="492" y="375" type="line"/>
      <point x="375" y="657" type="line"/>
      <point x="904" y="657" type="line"/>
      <point x="904" y="700" type="line"/>
      <point x="300" y="700" type="line"/>
    </contour>
    <contour>
      <point x="171" y="278" type="line"/>
      <point x="328" y="657" type="line"/>
      <point x="484" y="278" type="line"/>
    </contour>
  </outline>
</glyph>
<glyph name="aogonek" format="2">
  <advance width="494"/>
  <unicode hex="0105"/>
  <outline>
    <contour>
      <point x="373" y="-221" type="curve" smooth="yes"/>
      <point x="399" y="-221"/>
      <point x="422" y="-214"/>
      <point x="442" y="-201" type="curve"/>
      <point x="429" y="-172" type="line"/>
      <point x="414" y="-182"/>
      <point x="396" y="-187"/>
      <point x="378" y="-187" type="curve" smooth="yes"/>
      <point x="340" y="-187"/>
      <point x="316" y="-168"/>
      <point x="316" y="-131" type="curve" smooth="yes"/>
      <point x="316" y="-94"/>
      <point x="343" y="-55"/>
      <point x="428" y="0" type="curve"/>
      <point x="428" y="336" type="line" smooth="yes"/>
      <point x="428" y="444"/>
      <point x="360" y="502"/>
      <point x="242" y="502" type="curve" smooth="yes"/>
      <point x="184" y="502"/>
      <point x="128" y="487"/>
      <point x="66" y="455" type="curve"/>
      <point x="85" y="416" type="line"/>
      <point x="149" y="449"/>
      <point x="195" y="463"/>
      <point x="241" y="463" type="curve" smooth="yes"/>
      <point x="333" y="463"/>
      <point x="384" y="418"/>
      <point x="384" y="328" type="curve" smooth="yes"/>
      <point x="384" y="246" type="line"/>
      <point x="340" y="274"/>
      <point x="286" y="289"/>
      <point x="228" y="289" type="curve" smooth="yes"/>
      <point x="110" y="289"/>
      <point x="34" y="229"/>
      <point x="34" y="138" type="curve" smooth="yes"/>
      <point x="34" y="50"/>
      <point x="108" y="-10"/>
      <point x="216" y="-10" type="curve" smooth="yes"/>
      <point x="283" y="-10"/>
      <point x="339" y="13"/>
      <point x="384" y="55" type="curve"/>
      <point x="384" y="0" type="line"/>
      <point x="385" y="0" type="line"/>
      <point x="308" y="-46"/>
      <point x="277" y="-94"/>
      <point x="277" y="-138" type="curve" smooth="yes"/>
      <point x="277" y="-185"/>
      <point x="311" y="-221"/>
    </contour>
    <contour>
      <point x="219" y="29" type="curve" smooth="yes"/>
      <point x="137" y="29"/>
      <point x="78" y="75"/>
      <point x="78" y="139" type="curve" smooth="yes"/>
      <point x="78" y="206"/>
      <point x="136" y="251"/>
      <point x="223" y="251" type="curve" smooth="yes"/>
      <point x="290" y="251"/>
      <point x="340" y="235"/>
      <point x="384" y="202" type="curve"/>
      <point x="384" y="100" type="line"/>
      <point x="341" y="54"/>
      <point x="289" y="29"/>
    </contour>
  </outline>
</glyph>
<glyph name="iogonek" format="2">
  <advance width="180"/>
  <unicode hex="012F"/>
  <outline>
    <contour>
      <point x="90" y="603" type="curve" smooth="yes"/>
      <point x="112" y="603"/>
      <point x="128" y="620"/>
      <point x="128" y="641" type="curve" smooth="yes"/>
      <point x="128" y="662"/>
      <point x="112" y="679"/>
      <point x="90" y="679" type="curve" smooth="yes"/>
      <point x="68" y="679"/>
      <point x="52" y="662"/>
      <point x="52" y="641" type="curve" smooth="yes"/>
      <point x="52" y="620"/>
      <point x="68" y="603"/>
    </contour>
    <contour>
      <point x="57" y="-221" type="curve" smooth="yes"/>
      <point x="83" y="-221"/>
      <point x="106" y="-214"/>
      <point x="126" y="-201" type="curve"/>
      <point x="113" y="-172" type="line"/>
      <point x="98" y="-182"/>
      <point x="80" y="-187"/>
      <point x="62" y="-187" type="curve" smooth="yes"/>
      <point x="24" y="-187"/>
      <point x="0" y="-168"/>
      <point x="0" y="-131" type="curve" smooth="yes"/>
      <point x="0" y="-94"/>
      <point x="27" y="-55"/>
      <point x="112" y="0" type="curve"/>
      <point x="112" y="492" type="line"/>
      <point x="68" y="492" type="line"/>
      <point x="68" y="0" type="line"/>
      <point x="69" y="0" type="line"/>
      <point x="-8" y="-48"/>
      <point x="-39" y="-94"/>
      <point x="-39" y="-138" type="curve" smooth="yes"/>
      <point x="-39" y="-185"/>
      <point x="-5" y="-221"/>
    </contour>
  </outline>
</glyph>
<glyph name="kgreenlandic" format="2">
  <advance width="461"/>
  <unicode hex="0138"/>
  <outline>
    <contour>
      <point x="68" y="0" type="line"/>
      <point x="112" y="0" type="line"/>
      <point x="112" y="242" type="line"/>
      <point x="397" y="0" type="line"/>
      <point x="464" y="0" type="line"/>
      <point x="162" y="254" type="line"/>
      <point x="452" y="492" type="line"/>
      <point x="390" y="492" type="line"/>
      <point x="112" y="263" type="line"/>
      <point x="112" y="492" type="line"/>
      <point x="68" y="492" type="line"/>
    </contour>
  </outline>
</glyph>
<glyph name="Eng" format="2">
  <advance width="714"/>
  <unicode hex="014A"/>
  <outline>
    <contour>
      <point x="522" y="-214" type="curve" smooth="yes"/>
      <point x="594" y="-214"/>
      <point x="631" y="-173"/>
      <point x="631" y="-103" type="curve" smooth="yes"/>
      <point x="631" y="700" type="line"/>
      <point x="585" y="700" type="line"/>
      <point x="585" y="76" type="line"/>
      <point x="133" y="700" type="line"/>
      <point x="83" y="700" type="line"/>
      <point x="83" y="0" type="line"/>
      <point x="129" y="0" type="line"/>
      <point x="129" y="632" type="line"/>
      <point x="587" y="0" type="line"/>
      <point x="587" y="-97" type="line" smooth="yes"/>
      <point x="587" y="-150"/>
      <point x="568" y="-171"/>
      <point x="521" y="-171" type="curve" smooth="yes"/>
      <point x="507" y="-171"/>
      <point x="498" y="-170"/>
      <point x="486" y="-167" type="curve"/>
      <point x="486" y="-211" type="line"/>
      <point x="499" y="-212"/>
      <point x="508" y="-214"/>
    </contour>
  </outline>
</glyph>
<glyph name="tcedilla" format="2">
  <advance width="338"/>
  <unicode hex="0163"/>
  <outline>
    <contour>
      <point x="198" y="-224" type="curve" smooth="yes"/>
      <point x="261" y="-224"/>
      <point x="304" y="-189"/>
      <point x="304" y="-138" type="curve" smooth="yes"/>
      <point x="304" y="-92"/>
      <point x="266" y="-61"/>
      <point x="209" y="-60" type="curve"/>
      <point x="223" y="-9" type="line"/>
      <point x="228" y="-10"/>
      <point x="235" y="-10"/>
      <point x="241" y="-10" type="curve" smooth="yes"/>
      <point x="269" y="-10"/>
      <point x="295" y="-6"/>
      <point x="321" y="3" type="curve"/>
      <point x="321" y="46" type="line"/>
      <point x="298" y="36"/>
      <point x="279" y="32"/>
      <point x="249" y="32" type="curve" smooth="yes"/>
      <point x="192" y="32"/>
      <point x="169" y="55"/>
      <point x="169" y="111" type="curve" smooth="yes"/>
      <point x="169" y="452" type="line"/>
      <point x="321" y="452" type="line"/>
      <point x="321" y="492" type="line"/>
      <point x="169" y="492" type="line"/>
      <point x="169" y="630" type="line"/>
      <point x="125" y="616" type="line"/>
      <point x="125" y="492" type="line"/>
      <point x="17" y="492" type="line"/>
      <point x="17" y="452" type="line"/>
      <point x="125" y="452" type="line"/>
      <point x="125" y="96" type="line" smooth="yes"/>
      <point x="125" y="46"/>
      <point x="148" y="11"/>
      <point x="191" y="-3" type="curve"/>
      <point x="168" y="-89" type="line"/>
      <point x="191" y="-89" type="line" smooth="yes"/>
      <point x="239" y="-89"/>
      <point x="267" y="-108"/>
      <point x="267" y="-139" type="curve" smooth="yes"/>
      <point x="267" y="-172"/>
      <point x="240" y="-193"/>
      <point x="198" y="-193" type="curve" smooth="yes"/>
      <point x="168" y="-193"/>
      <point x="140" y="-182"/>
      <point x="113" y="-161" type="curve"/>
      <point x="90" y="-186" type="line"/>
      <point x="116" y="-210"/>
      <point x="156" y="-224"/>
    </contour>
  </outline>
</glyph>
<glyph name="Tbar" format="2">
  <advance width="600"/>
  <unicode hex="0166"/>
  <outline>
    <contour>
      <point x="277" y="0" type="line"/>
      <point x="323" y="0" type="line"/>
      <point x="323" y="334" type="line"/>
      <point x="487" y="334" type="line"/>
      <point x="487" y="375" type="line"/>
      <point x="323" y="375" type="line"/>
      <point x="323" y="657" type="line"/>
      <point x="583" y="657" type="line"/>
      <point x="583" y="700" type="line"/>
      <point x="17" y="700" type="line"/>
      <point x="17" y="657" type="line"/>
      <point x="277" y="657" type="line"/>
      <point x="277" y="375" type="line"/>
      <point x="113" y="375" type="line"/>
      <point x="113" y="334" type="line"/>
      <point x="277" y="334" type="line"/>
    </contour>
  </outline>
</glyph>
<glyph name="circumflex" format="2">
  <advance width="600"/>
  <unicode hex="02C6"/>
  <outline>
    <contour>
      <point x="388" y="591" type="line"/>
      <point x="425" y="591" type="line"/>
      <point x="326" y="706" type="line"/>
      <point x="274" y="706" type="line"/>
      <point x="175" y="591" type="line"/>
      <point x="212" y="591" type="line"/>
      <point x="300" y="674" type="line"/>
    </contour>
  </outline>
</glyph>
<glyph name="ring" format="2">
  <advance width="600"/>
  <unicode hex="02DA"/>
  <outline>
    <contour>
      <point x="300" y="581" type="curve" smooth="yes"/>
      <point x="360" y="581"/>
      <point x="406" y="629"/>
      <point x="406" y="688" type="curve" smooth="yes"/>
      <point x="406" y="745"/>
      <point x="361" y="794"/>
      <point x="300" y="794" type="curve" smooth="yes"/>
      <point x="239" y="794"/>
      <point x="194" y="745"/>
      <point x="194" y="688" type="curve" smooth="yes"/>
      <point x="194" y="629"/>
      <point x="240" y="581"/>
    </contour>
    <contour>
      <point x="300" y="614" type="curve" smooth="yes"/>
      <point x="259" y="614"/>
      <point x="228" y="647"/>
      <point x="228" y="688" type="curve"/>
      <point x="228" y="729"/>
      <point x="260" y="761"/>
      <point x="300" y="761" type="curve" smooth="yes"/>
      <point x="339" y="761"/>
      <point x="372" y="729"/>
      <point x="372" y="688" type="curve" smooth="yes"/>
      <point x="372" y="647"/>
      <point x="340" y="614"/>
    </contour>
  </outline>
</glyph>
<glyph name="ogonek" format="2">
  <advance width="600"/>
  <unicode hex="02DB"/>
  <outline>
    <contour>
      <point x="293" y="-221" type="curve" smooth="yes"/>
      <point x="319" y="-221"/>
      <point x="342" y="-214"/>
      <point x="362" y="-201" type="curve"/>
      <point x="349" y="-172" type="line"/>
      <point x="334" y="-182"/>
      <point x="316" y="-187"/>
      <point x="298" y="-187" type="curve" smooth="yes"/>
      <point x="260" y="-187"/>
      <point x="236" y="-168"/>
      <point x="236" y="-131" type="curve" smooth="yes"/>
      <point x="236" y="-94"/>
      <point x="263" y="-55"/>
      <point x="348" y="0" type="curve"/>
      <point x="320" y="15" type="line"/>
      <point x="229" y="-47"/>
      <point x="197" y="-90"/>
      <point x="197" y="-138" type="curve" smooth="yes"/>
      <point x="197" y="-185"/>
      <point x="231" y="-221"/>
    </contour>
  </outline>
</glyph>
<glyph name="tilde" format="2">
  <advance width="600"/>
  <unicode hex="02DC"/>
  <outline>
    <contour>
      <point x="180" y="593" type="line"/>
      <point x="189" y="636"/>
      <point x="202" y="651"/>
      <point x="227" y="651" type="curve"/>
      <point x="270" y="651"/>
      <point x="318" y="594"/>
      <point x="369" y="594" type="curve" smooth="yes"/>
      <point x="412" y="594"/>
      <point x="442" y="622"/>
      <point x="456" y="684" type="curve"/>
      <point x="419" y="690" type="line"/>
      <point x="409" y="647"/>
      <point x="395" y="632"/>
      <point x="372" y="632" type="curve"/>
      <point x="329" y="632"/>
      <point x="281" y="689"/>
      <point x="229" y="689" type="curve" smooth="yes"/>
      <point x="186" y="689"/>
      <point x="157" y="661"/>
      <point x="143" y="599" type="curve"/>
    </contour>
  </outline>
</glyph>
<glyph name="uni2070" format="2">
  <advance width="345"/>
  <unicode hex="2070"/>
  <outline>
    <contour>
      <point x="173" y="345" type="curve" smooth="yes"/>
      <point x="255" y="345"/>
      <point x="316" y="417"/>
      <point x="316" y="525" type="curve" smooth="yes"/>
      <point x="316" y="633"/>
      <point x="255" y="705"/>
      <point x="173" y="705" type="curve" smooth="yes"/>
      <point x="90" y="705"/>
      <point x="30" y="633"/>
      <point x="30" y="525" type="curve" smooth="yes"/>
      <point x="30" y="417"/>
      <point x="90" y="345"/>
    </contour>
    <contour>
      <point x="173" y="379" type="curve" smooth="yes"/>
      <point x="110" y="379"/>
      <point x="67" y="435"/>
      <point x="67" y="525" type="curve" smooth="yes"/>
      <point x="67" y="615"/>
      <point x="110" y="671"/>
      <point x="173" y="671" type="curve" smooth="yes"/>
      <point x="236" y="671"/>
      <point x="279" y="615"/>
      <point x="279" y="525" type="curve" smooth="yes"/>
      <point x="279" y="435"/>
      <point x="236" y="379"/>
    </contour>
  </outline>
</glyph>
<glyph name="uni2074" format="2">
  <advance width="318"/>
  <unicode hex="2074"/>
  <outline>
    <contour>
      <point x="221" y="350" type="line"/>
      <point x="257" y="350" type="line"/>
      <point x="257" y="443" type="line"/>
      <point x="299" y="443" type="line"/>
      <point x="299" y="476" type="line"/>
      <point x="257" y="476" type="line"/>
      <point x="257" y="700" type="line"/>
      <point x="217" y="700" type="line"/>
      <point x="21" y="471" type="line"/>
      <point x="21" y="443" type="line"/>
      <point x="221" y="443" type="line"/>
    </contour>
    <contour>
      <point x="70" y="476" type="line"/>
      <point x="221" y="652" type="line"/>
      <point x="221" y="476" type="line"/>
    </contour>
  </outline>
</glyph>
<glyph name="uni2084" format="2">
  <advance width="318"/>
  <unicode hex="2084"/>
  <outline>
    <contour>
      <point x="221" y="0" type="line"/>
      <point x="257" y="0" type="line"/>
      <point x="257" y="93" type="line"/>
      <point x="299" y="93" type="line"/>
      <point x="299" y="126" type="line"/>
      <point x="257" y="126" type="line"/>
      <point x="257" y="350" type="line"/>
      <point x="217" y="350" type="line"/>
      <point x="21" y="121" type="line"/>
      <point x="21" y="93" type="line"/>
      <point x="221" y="93" type="line"/>
    </contour>
    <contour>
      <point x="70" y="126" type="line"/>
      <point x="221" y="302" type="line"/>
      <point x="221" y="126" type="line"/>
    </contour>
  </outline>
</glyph>
<glyph name="trademark" format="2">
  <advance width="669"/>
  <unicode hex="2122"/>
  <outline>
    <contour>
      <point x="323" y="425" type="line"/>
      <point x="354" y="425" type="line"/>
      <point x="354" y="659" type="line"/>
      <point x="459" y="444" type="line"/>
      <point x="564" y="659" type="line"/>
      <point x="564" y="425" type="line"/>
      <point x="595" y="425" type="line"/>
      <point x="595" y="700" type="line"/>
      <point x="556" y="700" type="line"/>
      <point x="460" y="504" type="line"/>
      <point x="363" y="700" type="line"/>
      <point x="323" y="700" type="line"/>
    </contour>
    <contour>
      <point x="138" y="425" type="line"/>
      <point x="169" y="425" type="line"/>
      <point x="169" y="672" type="line"/>
      <point x="270" y="672" type="line"/>
      <point x="270" y="700" type="line"/>
      <point x="37" y="700" type="line"/>
      <point x="37" y="672" type="line"/>
      <point x="138" y="672" type="line"/>
    </contour>
  </outline>
</glyph>
<glyph name="acutecomb" format="2">
  <anchor x="307" y="492" name="_top"/>
  <outline>
    <contour>
      <point x="272" y="596" type="line"/>
      <point x="316" y="596" type="line"/>
      <point x="435" y="706" type="line"/>
      <point x="368" y="706" type="line"/>
    </contour>
  </outline>
</glyph>
<glyph name="commaaccent" format="2">
  <advance width="600"/>
  <guideline x="300" y="-31" angle="90.0" identifier="TB9epO5wox"/>
  <outline>
    <contour>
      <point x="239" y="-254" type="line"/>
      <point x="274" y="-254" type="line"/>
      <point x="325" y="-86" type="line"/>
      <point x="275" y="-86" type="line"/>
    </contour>
  </outline>
</glyph>
<glyph name="four.tab" format="2">
  <advance width="600"/>
  <outline>
    <contour>
      <point x="423" y="0" type="line"/>
      <point x="467" y="0" type="line"/>
      <point x="467" y="197" type="line"/>
      <point x="570" y="197" type="line"/>
      <point x="570" y="239" type="line"/>
      <point x="467" y="239" type="line"/>
      <point x="467" y="700" type="line"/>
      <point x="421" y="700" type="line"/>
      <point x="35" y="232" type="line"/>
      <point x="35" y="197" type="line"/>
      <point x="423" y="197" type="line"/>
    </contour>
    <contour>
      <point x="95" y="239" type="line"/>
      <point x="423" y="635" type="line"/>
      <point x="423" y="239" type="line"/>
    </contour>
  </outline>
</glyph>
<glyph name="g.alt" format="2">
  <advance width="499"/>
  <note>
Version created Sun Jan 13 16:53:00 2019
</note>
  <anchor x="251" y="492" name="top"/>
  <outline>
    <contour>
      <point x="246" y="-214" type="curve" smooth="yes"/>
      <point x="393" y="-214"/>
      <point x="488" y="-157"/>
      <point x="488" y="-69" type="curve" smooth="yes"/>
      <point x="488" y="-9"/>
      <point x="446" y="26"/>
      <point x="368" y="29" type="curve" smooth="yes"/>
      <point x="198" y="36" type="line" smooth="yes"/>
      <point x="157" y="37"/>
      <point x="135" y="52"/>
      <point x="135" y="79" type="curve" smooth="yes"/>
      <point x="135" y="107"/>
      <point x="158" y="130"/>
      <point x="198" y="141" type="curve"/>
      <point x="215" y="136"/>
      <point x="232" y="134"/>
      <point x="251" y="134" type="curve" smooth="yes"/>
      <point x="359" y="134"/>
      <point x="447" y="216"/>
      <point x="447" y="318" type="curve" smooth="yes"/>
      <point x="447" y="364"/>
      <point x="429" y="407"/>
      <point x="399" y="439" type="curve"/>
      <point x="414" y="462"/>
      <point x="442" y="475"/>
      <point x="476" y="475" type="curve" smooth="yes"/>
      <point x="487" y="475"/>
      <point x="495" y="474"/>
      <point x="501" y="473" type="curve"/>
      <point x="498" y="519" type="line"/>
      <point x="493" y="520"/>
      <point x="486" y="521"/>
      <point x="479" y="521" type="curve" smooth="yes"/>
      <point x="435" y="521"/>
      <point x="395" y="496"/>
      <point x="376" y="460" type="curve"/>
      <point x="342" y="486"/>
      <point x="298" y="502"/>
      <point x="251" y="502" type="curve" smooth="yes"/>
      <point x="143" y="502"/>
      <point x="55" y="420"/>
      <point x="55" y="318" type="curve" smooth="yes"/>
      <point x="55" y="248"/>
      <point x="96" y="188"/>
      <point x="157" y="156" type="curve"/>
      <point x="117" y="139"/>
      <point x="89" y="107"/>
      <point x="89" y="75" type="curve" smooth="yes"/>
      <point x="89" y="48"/>
      <point x="103" y="25"/>
      <point x="128" y="10" type="curve"/>
      <point x="61" y="-18"/>
      <point x="29" y="-53"/>
      <point x="29" y="-98" type="curve" smooth="yes"/>
      <point x="29" y="-171"/>
      <point x="110" y="-214"/>
    </contour>
    <contour>
      <point x="251" y="176" type="curve" smooth="yes"/>
      <point x="166" y="176"/>
      <point x="100" y="238"/>
      <point x="100" y="318" type="curve" smooth="yes"/>
      <point x="100" y="398"/>
      <point x="166" y="460"/>
      <point x="251" y="460" type="curve" smooth="yes"/>
      <point x="336" y="460"/>
      <point x="402" y="398"/>
      <point x="402" y="318" type="curve" smooth="yes"/>
      <point x="402" y="238"/>
      <point x="336" y="176"/>
    </contour>
    <contour>
      <point x="239" y="-172" type="curve" smooth="yes"/>
      <point x="138" y="-172"/>
      <point x="74" y="-141"/>
      <point x="74" y="-91" type="curve" smooth="yes"/>
      <point x="74" y="-57"/>
      <point x="112" y="-25"/>
      <point x="176" y="-6" type="curve"/>
      <point x="182" y="-7"/>
      <point x="189" y="-8"/>
      <point x="196" y="-8" type="curve" smooth="yes"/>
      <point x="362" y="-15" type="line" smooth="yes"/>
      <point x="417" y="-18"/>
      <point x="444" y="-37"/>
      <point x="444" y="-73" type="curve" smooth="yes"/>
      <point x="444" y="-133"/>
      <point x="363" y="-172"/>
    </contour>
  </outline>
</glyph>
<glyph name="gravecomb" format="2">
  <anchor x="290" y="492" name="_top"/>
  <outline>
    <contour>
      <point x="281" y="596" type="line"/>
      <point x="325" y="596" type="line"/>
      <point x="231" y="706" type="line"/>
      <point x="163" y="706" type="line"/>
    </contour>
  </outline>
</glyph>
<glyph name="six.tab" format="2">
  <advance width="600"/>
  <outline>
    <contour>
      <point x="325" y="-11" type="curve" smooth="yes"/>
      <point x="457" y="-11"/>
      <point x="554" y="86"/>
      <point x="554" y="217" type="curve" smooth="yes"/>
      <point x="554" y="346"/>
      <point x="456" y="439"/>
      <point x="320" y="439" type="curve" smooth="yes"/>
      <point x="241" y="439"/>
      <point x="163" y="399"/>
      <point x="107" y="332" type="curve"/>
      <point x="111" y="541"/>
      <point x="209" y="669"/>
      <point x="364" y="669" type="curve" smooth="yes"/>
      <point x="406" y="669"/>
      <point x="456" y="656"/>
      <point x="496" y="636" type="curve"/>
      <point x="515" y="675" type="line"/>
      <point x="471" y="698"/>
      <point x="419" y="711"/>
      <point x="367" y="711" type="curve" smooth="yes"/>
      <point x="182" y="711"/>
      <point x="59" y="555"/>
      <point x="59" y="319" type="curve" smooth="yes"/>
      <point x="59" y="127"/>
      <point x="170" y="-11"/>
    </contour>
    <contour>
      <point x="316" y="397" type="curve" smooth="yes"/>
      <point x="430" y="397"/>
      <point x="508" y="320"/>
      <point x="508" y="215" type="curve" smooth="yes"/>
      <point x="508" y="111"/>
      <point x="431" y="31"/>
      <point x="326" y="31" type="curve" smooth="yes"/>
      <point x="204" y="31"/>
      <point x="119" y="132"/>
      <point x="108" y="282" type="curve"/>
      <point x="161" y="353"/>
      <point x="239" y="397"/>
    </contour>
  </outline>
</glyph>
<glyph name="uni0304" format="2">
  <anchor x="300" y="492" name="_top"/>
  <outline>
    <contour>
      <point x="167" y="620" type="line"/>
      <point x="434" y="620" type="line"/>
      <point x="434" y="657" type="line"/>
      <point x="167" y="657" type="line"/>
    </contour>
  </outline>
</glyph>
<glyph name="uni030C" format="2">
  <anchor x="300" y="492" name="_top"/>
  <outline>
    <contour>
      <point x="214" y="708" type="line"/>
      <point x="175" y="708" type="line"/>
      <point x="274" y="594" type="line"/>
      <point x="326" y="594" type="line"/>
      <point x="425" y="708" type="line"/>
      <point x="386" y="708" type="line"/>
      <point x="300" y="625" type="line"/>
    </contour>
  </outline>
</glyph>
